<?xml version="1.0" standalone="no"?><!DOCTYPE svg PUBLIC "-//W3C//DTD SVG 1.1//EN" "http://www.w3.org/Graphics/SVG/1.1/DTD/svg11.dtd"><svg class="icon" width="200px" height="200.00px" viewBox="0 0 1024 1024" version="1.1" xmlns="http://www.w3.org/2000/svg"><path d="M328.2 851l-66.8-35.4c-1.9-1-2.6-3.3-1.6-5.2l124.1-234.5c1-1.9 3.3-2.6 5.2-1.6l66.8 35.4c1.9 1 2.6 3.3 1.6 5.2L333.4 849.3c-1 1.9-3.3 2.7-5.2 1.7z m0 0" fill="#ED9E48" /><path d="M314.2 861.2c-10.3 0-20.6-2.4-30.2-7.5-31.6-16.7-43.7-56-26.9-87.6l88.8-167.7c16.7-31.6 56-43.7 87.6-26.9 15.3 8 26.5 21.6 31.5 38.2 5.1 16.6 3.4 34.1-4.6 49.4l-88.8 167.7c-11.7 21.9-34.2 34.4-57.4 34.4z m-8.6-48.3c4.4 2.3 9.3 2.7 14.1 1.3 4.8-1.5 8.6-4.6 10.9-9l88.8-167.7c2.3-4.4 2.7-9.3 1.3-14.1-1.5-4.8-4.6-8.6-9-10.9-9.1-4.8-20.2-1.3-25 7.7l-88.8 167.7c-4.7 8.9-1.3 20.2 7.7 25z m0 0" fill="#4C2F1B" /><path d="M421.3 594.3c99.8 52.8 223.6 14.8 276.4-85 52.8-99.8 14.8-223.6-85.1-276.4-99.8-52.8-223.6-14.8-276.4 85-52.8 99.8-14.7 223.6 85.1 276.4z m0 0" fill="#FFC2DB" /><path d="M517.1 209c32.3 0 65 7.7 95.5 23.8 99.9 52.9 137.9 176.7 85.1 276.4-36.7 69.3-107.6 108.9-180.9 108.9-32.3 0-65-7.7-95.5-23.8-99.9-52.9-137.9-176.7-85.1-276.4C372.9 248.6 443.8 209 517.1 209m0-46.2c-93.2 0-178.2 51.2-221.8 133.4-64.7 122.2-17.9 274.3 104.3 339 36 19.1 76.6 29.2 117.2 29.2 93.2 0 178.2-51.2 221.8-133.4 64.7-122.2 17.9-274.3-104.3-339-36-19.1-76.6-29.2-117.2-29.2z m0 0" fill="#4C2F1B" /><path d="M716.3 595.7L254.4 351.1c-2.6-1.4-3.6-4.5-2.2-7.1l48.5-91.6c1.4-2.6 4.5-3.6 7.1-2.2l461.9 244.6c2.6 1.4 3.6 4.5 2.2 7.1l-48.5 91.6c-1.4 2.6-4.6 3.6-7.1 2.2z m0 0" fill="#FF73AC" /><path d="M697 601.2c-12.9 0-25.6-3.2-37.3-9.3L289.3 395.8c-39.1-20.7-54.1-69.4-33.3-108.4 20.7-39 69.4-54.1 108.4-33.3l370.3 196c18.9 10 32.7 26.8 39 47.3 6.3 20.5 4.3 42.2-5.7 61.1s-26.8 32.7-47.3 39c-7.8 2.5-15.8 3.7-23.7 3.7zM326.9 291c-12.2 0-24 6.6-30.1 18-8.8 16.6-2.4 37.2 14.1 45.9l370.3 196c7.9 4.2 17.2 5 25.8 2.4 8.7-2.6 15.8-8.5 20.1-16.5 4.2-7.9 5-17.2 2.4-25.9s-8.5-15.8-16.5-20l-370.3-196c-5-2.6-10.4-3.9-15.8-3.9z m0 0" fill="#4C2F1B" /><path d="M691.1 399.9c-7.1 0-13.2-5.4-13.8-12.6-6.2-67.2-54-95.2-56-96.4-6.7-3.8-9-12.2-5.3-18.9 3.8-6.7 12.1-9.1 18.8-5.4 2.6 1.5 62.6 35.7 70.1 118.1 0.7 7.6-5 14.4-12.6 15.1-0.4 0-0.8 0.1-1.2 0.1z m0 0M578.6 259.1c0 4.9 2.6 9.5 6.9 12 4.3 2.5 9.6 2.5 13.8 0 4.3-2.5 6.9-7 6.9-12 0-4.9-2.6-9.5-6.9-12-4.3-2.5-9.6-2.5-13.8 0-4.3 2.5-6.9 7.1-6.9 12z m0 0" fill="#FFFFFF" /></svg>