<?xml version="1.0" standalone="no"?><!DOCTYPE svg PUBLIC "-//W3C//DTD SVG 1.1//EN" "http://www.w3.org/Graphics/SVG/1.1/DTD/svg11.dtd"><svg class="icon" width="200px" height="200.00px" viewBox="0 0 1024 1024" version="1.1" xmlns="http://www.w3.org/2000/svg"><path d="M300.3 773c-29.7 0-56.9-13.8-74.3-38.1-26-36.1-29.1-89.8-8.7-151.4C221.8 570 329.9 251 511.4 251c178.7 0 285.2 309 292.8 331.8 22.6 55.6 21 109.3-4.7 147.6-18.1 27.1-46.2 42.7-76.9 42.7H300.3z m0 0" fill="#FFFFFF" /><path d="M300.3 791.7c-35.8 0-68.4-16.7-89.4-45.8-29.7-41.1-33.7-100.8-11.3-168.2 11.7-35.4 120.3-345.4 311.9-345.4 190.5 0 298.6 308.7 310.3 343.9 24.8 61.4 22.4 121.3-6.6 164.6-21.7 32.4-55.4 51-92.4 51H300.3z m211.1-521.9c-168.1 0-272 306.7-276.3 319.7-18.5 55.7-16.3 103.5 6.1 134.5 14.1 19.6 35.1 30.3 59.1 30.3h422.4c24.3 0 46.7-12.5 61.3-34.4 22.2-33.2 23.1-80.9 2.5-130.9-4.2-12.9-106.5-319.2-275.1-319.2z" fill="#4C2F1B" /><path d="M427 762.9V588.2c0-17.5 14.2-31.6 31.6-31.6h105.7c17.5 0 31.6 14.2 31.6 31.6v174.7H427z m0 0" fill="#4C2F1B" /><path d="M564.3 571.8c9.1 0 16.4 7.3 16.4 16.4v159.5H442.2V588.2c0-9.1 7.3-16.4 16.4-16.4h105.7m0-30.4H458.6c-25.8 0-46.8 21-46.8 46.8v189.9h199.5V588.2c-0.2-25.8-21.2-46.8-47-46.8zM512 330.7s-14 29.6 0 29.6c14 0.1 0-29.6 0-29.6zM292.5 612.5s-14 29.7 0 29.7c13.9 0 0-29.7 0-29.7z m75.1 0s-14 29.7 0 29.7c13.9 0 0-29.7 0-29.7z m286 0s-14 29.7 0 29.7c14.1 0 0-29.7 0-29.7z m75.1 0s-14 29.7 0 29.7c14.1 0 0-29.7 0-29.7zM402.5 401.7s-14 29.7 0 29.7c13.9 0.1 0-29.7 0-29.7zM355.1 495s-14 29.6 0 29.6 0-29.6 0-29.6z m102.1 0s-14 29.6 0 29.6c14.1 0 0-29.6 0-29.6z m107.6 0s-14 29.6 0 29.6c13.9 0 0-29.6 0-29.6z m101.5 0s-14 29.6 0 29.6c14.1 0 0-29.6 0-29.6zM512 401.7s-14 29.7 0 29.7c14 0.1 0-29.7 0-29.7z m105.5 0s-14 29.7 0 29.7c14 0.1 0-29.7 0-29.7z m0 0" fill="#4C2F1B" /></svg>