<?xml version="1.0" standalone="no"?><!DOCTYPE svg PUBLIC "-//W3C//DTD SVG 1.1//EN" "http://www.w3.org/Graphics/SVG/1.1/DTD/svg11.dtd"><svg class="icon" width="200px" height="181.40px" viewBox="0 0 1129 1024" version="1.1" xmlns="http://www.w3.org/2000/svg"><path d="M342.369103 558.803862v381.854897c0 32.423724 26.526897 58.959448 58.959449 58.959448h325.075862c32.423724 0 58.968276-26.535724 58.968276-58.968276V558.81269H342.360276z" fill="#BFBFEC" /><path d="M546.189241 558.803862h35.363311v440.814345h-35.363311zM418.868966 558.803862h35.354482v440.814345H418.868966zM673.509517 558.803862h35.363311v440.814345h-35.363311z" fill="#2F3953" opacity=".1" /><path d="M358.082207 482.657103L267.387586 613.34069a20.753655 20.753655 0 1 0 34.109793 23.657931l3.328-4.79338a20.656552 20.656552 0 0 0 8.915862 10.804966 20.744828 20.744828 0 0 0 28.460138-7.238621l2.383449-4.016552a20.683034 20.683034 0 0 0 19.667862 14.177104c7.64469 0 14.998069-4.237241 18.626207-11.546483l1.500689-3.036689a20.727172 20.727172 0 0 0 19.800276 14.583172c8.262621 0 16.066207-4.961103 19.305931-13.117793l0.715035-1.800828a20.727172 20.727172 0 0 0 19.915034 14.918621c8.951172 0 17.213793-5.826207 19.897379-14.848l0.061793-0.238345a20.744828 20.744828 0 0 0 39.918345 0 20.762483 20.762483 0 0 0 19.985655 15.086345 20.762483 20.762483 0 0 0 19.93269-15.095172 20.744828 20.744828 0 0 0 39.909517 0 20.762483 20.762483 0 0 0 22.016 14.989241 20.744828 20.744828 0 0 0 17.902345-14.989241 20.77131 20.77131 0 0 0 24.002207 14.689103 20.736 20.736 0 0 0 15.916138-14.680276l0.061793 0.238345a20.77131 20.77131 0 0 0 25.82069 13.982896 20.727172 20.727172 0 0 0 13.991724-14.053517l0.706207 1.800828a20.762483 20.762483 0 0 0 39.106207-1.465379l1.518345 3.036689a20.744828 20.744828 0 0 0 38.276413-2.630621l2.392276 4.02538a20.762483 20.762483 0 0 0 37.376-3.575173l3.328 4.802207a20.727172 20.727172 0 0 0 28.89269 5.208276 20.762483 20.762483 0 0 0 5.225931-28.875034L769.677241 482.657103H358.082207z" fill="#866539" /><path d="M1110.05131 410.006069c0 81.972966-66.454069 148.427034-148.435862 148.427034H166.10869c-81.972966 0-148.427034-66.454069-148.427035-148.427034C17.681655 150.068966 300.544 17.990621 563.862069 17.990621c263.326897 0 546.189241 132.087172 546.189241 392.015448z" fill="#F0F8C6" /><path d="M1110.05131 410.006069c0 81.972966-66.454069 148.427034-148.435862 148.427034H166.10869c-81.972966 0-148.427034-66.454069-148.427035-148.427034C17.681655 150.068966 300.544 17.990621 563.862069 17.990621c263.326897 0 546.189241 132.087172 546.189241 392.015448z" fill="#C3DDF7" /><path d="M307.147034 298.831448m-33.262344 0a33.262345 33.262345 0 1 0 66.524689 0 33.262345 33.262345 0 1 0-66.524689 0Z" fill="#3F4963" /><path d="M820.594759 298.831448m-33.262345 0a33.262345 33.262345 0 1 0 66.524689 0 33.262345 33.262345 0 1 0-66.524689 0Z" fill="#3F4963" /><path d="M342.731034 414.411034h-71.168a17.681655 17.681655 0 1 1 0-35.36331h71.168a17.681655 17.681655 0 1 1 0 35.36331zM856.187586 414.411034h-71.176827a17.681655 17.681655 0 1 1 0-35.36331h71.168a17.681655 17.681655 0 1 1 0 35.36331z" fill="#FF6376" /><path d="M522.213517 391.415172a59.400828 59.400828 0 0 1-59.321379-59.321379 17.681655 17.681655 0 1 1 35.354483 0 24.002207 24.002207 0 0 0 23.966896 23.966897 24.002207 24.002207 0 0 0 23.975724-23.966897 17.681655 17.681655 0 1 1 35.363311 0 59.400828 59.400828 0 0 1-59.339035 59.321379z" fill="#3F4963" /><path d="M605.519448 391.415172a59.400828 59.400828 0 0 1-59.321379-59.321379 17.681655 17.681655 0 1 1 35.354483 0 24.002207 24.002207 0 0 0 23.966896 23.966897 24.002207 24.002207 0 0 0 23.975724-23.966897 17.681655 17.681655 0 1 1 35.363311 0 59.400828 59.400828 0 0 1-59.339035 59.321379z" fill="#3F4963" /><path d="M921.476414 107.890759a142.035862 142.035862 0 0 0-32.361931 90.473931c0 78.777379 63.858759 142.636138 142.644965 142.636138 24.275862 0 47.13931-6.082207 67.151449-16.781242-25.12331-93.334069-90.994759-165.534897-177.434483-216.328827zM122.217931 415.788138a142.124138 142.124138 0 0 0-97.721379 38.779586C43.431724 514.771862 99.663448 558.433103 166.10869 558.433103h98.745379c0-78.777379-63.858759-142.644966-142.636138-142.644965z" fill="#3F4963" opacity=".1" /><path d="M427.917241 123.180138m-49.284413 0a49.284414 49.284414 0 1 0 98.568827 0 49.284414 49.284414 0 1 0-98.568827 0Z" fill="#3F4963" opacity=".1" /><path d="M945.152 101.579034C843.343448 37.225931 704.370759 0.308966 563.862069 0.308966c-140.499862 0-279.481379 36.908138-381.281103 101.270068C63.134897 177.090207 0 283.745103 0 410.006069c0 91.595034 74.513655 166.10869 166.10869 166.10869H271.713103l-18.838069 27.144827a38.488276 38.488276 0 0 0 9.666207 53.495173 38.452966 38.452966 0 0 0 41.878069 1.271172 38.444138 38.444138 0 0 0 19.93269 5.587862l0.344276-0.008827v277.044965c0 42.266483 34.374621 76.641103 76.641103 76.641103h325.075862c42.257655 0 76.641103-34.374621 76.641104-76.641103V663.604966l0.353103 0.017655c6.894345 0 13.682759-1.871448 19.64138-5.411311l0.300138-0.176551a38.488276 38.488276 0 0 0 19.976827 5.587862c7.856552 0 15.430621-2.383448 21.892414-6.859035a38.488276 38.488276 0 0 0 9.666207-53.495172l-18.838069-27.153655h105.577931c91.595034 0 166.117517-74.513655 166.117517-166.10869 0-126.260966-63.134897-232.915862-182.580965-308.427035z m-177.469793 839.070897a41.321931 41.321931 0 0 1-41.277793 41.277793H401.319724a41.321931 41.321931 0 0 1-41.277793-41.277793v-277.274483a38.417655 38.417655 0 0 0 24.231724-5.323034 38.196966 38.196966 0 0 0 19.923862 5.561379c7.247448 0 14.124138-1.986207 19.994483-5.552552 2.763034 1.677241 5.764414 3.001379 8.942345 3.954759a38.170483 38.170483 0 0 0 30.870069-4.007724c3.795862 2.304 8.033103 3.972414 12.570483 4.881655a38.682483 38.682483 0 0 0 27.365517-4.864 38.664828 38.664828 0 0 0 20.03862 5.587862c7.20331 0 14.062345-2.030345 19.950345-5.632a38.249931 38.249931 0 0 0 19.950345 5.632c7.194483 0 14.053517-2.030345 19.950345-5.632a38.241103 38.241103 0 0 0 23.755034 5.437793 38.470621 38.470621 0 0 0 16.225104-5.384827 38.682483 38.682483 0 0 0 27.365517 4.855172c4.528552-0.909241 8.765793-2.568828 12.552828-4.881655a38.223448 38.223448 0 0 0 39.821241 0.044138c5.879172 3.575172 12.747034 5.561379 19.994483 5.561379a38.258759 38.258759 0 0 0 19.923862-5.561379 38.408828 38.408828 0 0 0 24.214069 5.323034v277.274483z m77.356138-312.937931a3.089655 3.089655 0 0 1-4.281379-0.785655l-3.328-4.793379a17.664 17.664 0 1 0-31.16138 4.096 3.001379 3.001379 0 0 1-1.31531 1.588965 3.089655 3.089655 0 0 1-4.219586-1.05931l-2.383449-4.02538a17.672828 17.672828 0 0 0-31.973517 3.416276 3.001379 3.001379 0 0 1-1.536 1.783173 3.072 3.072 0 0 1-4.148965-1.394759l-1.50069-3.03669a17.672828 17.672828 0 1 0-32.715035 2.586483 3.054345 3.054345 0 0 1-2.930758 2.171586 3.089655 3.089655 0 0 1-2.877793-1.977379l-0.715035-1.800828a17.672828 17.672828 0 1 0-33.385931 1.553656 3.063172 3.063172 0 0 1-2.092138 2.100965c-1.324138 0.397241-3.248552-0.211862-3.742896-1.871448l-0.070621-0.238345a17.672828 17.672828 0 0 0-16.993103-12.844138h-0.008828c-7.891862 0-14.830345 5.234759-17.001931 12.817655a3.089655 3.089655 0 0 1-2.33931 2.198069 3.045517 3.045517 0 0 1-3.566345-2.171586 17.672828 17.672828 0 0 0-34.01269-0.017655 3.063172 3.063172 0 0 1-5.896827 0.026483 17.681655 17.681655 0 0 0-17.001931-12.870621h-0.008828c-7.909517 0-14.848 5.243586-17.010759 12.852965a3.089655 3.089655 0 0 1-2.948413 2.23338 3.089655 3.089655 0 0 1-2.948414-2.23338 17.681655 17.681655 0 0 0-34.021517 0.017656 3.089655 3.089655 0 0 1-3.239725 2.206896 3.089655 3.089655 0 0 1-2.657103-2.233379 17.672828 17.672828 0 0 0-17.010759-12.844138h-0.008827a17.681655 17.681655 0 0 0-17.001931 12.861793 3.133793 3.133793 0 0 1-3.539862 2.171586 3.089655 3.089655 0 0 1-2.356966-2.198069 17.672828 17.672828 0 0 0-17.001931-12.817655h-0.008828c-7.90069 0-14.830345 5.252414-17.001931 12.844138v0.03531a3.089655 3.089655 0 0 1-3.831172 2.074483 3.072 3.072 0 0 1-2.065655-2.109793 17.672828 17.672828 0 0 0-33.385931-1.544828l-0.73269 1.827311a3.080828 3.080828 0 0 1-5.799724-0.238345 17.672828 17.672828 0 0 0-15.483586-12.332138 17.602207 17.602207 0 0 0-17.231448 9.772138l-1.509518 3.03669a3.072 3.072 0 0 1-5.66731-0.388414 17.690483 17.690483 0 0 0-31.96469-3.433931l-2.392276 4.016552a3.089655 3.089655 0 0 1-4.237241 1.068137 2.966069 2.966069 0 0 1-1.306483-1.588965 17.672828 17.672828 0 0 0-31.161379-4.087172l-3.336828 4.802206a3.080828 3.080828 0 1 1-5.058206-3.504551l32.83862-47.315862h498.246621l32.820965 47.315862c0.971034 1.385931 0.626759 3.310345-0.776827 4.281379z m116.577103-86.951724H166.10869c-72.094897 0-130.745379-58.65931-130.74538-130.754207 0-143.421793 90.33269-230.629517 166.117518-278.536828C297.789793 70.585379 429.868138 35.663448 563.862069 35.663448c134.002759 0 266.089931 34.913103 362.390069 95.796966 75.784828 47.90731 166.117517 135.115034 166.117517 278.536827 0 72.094897-58.65931 130.745379-130.754207 130.74538zM307.147034 265.560276a33.262345 33.262345 0 1 0 0 66.533517 33.262345 33.262345 0 0 0 0-66.533517z m340.029794 48.843034a17.681655 17.681655 0 0 0-17.681656 17.681656 24.002207 24.002207 0 0 1-23.975724 23.966896 24.002207 24.002207 0 0 1-23.966896-23.966896 17.681655 17.681655 0 1 0-35.363311 0 24.002207 24.002207 0 0 1-23.975724 23.966896 24.002207 24.002207 0 0 1-23.966896-23.966896 17.681655 17.681655 0 1 0-35.363311 0 59.400828 59.400828 0 0 0 59.330207 59.321379 59.136 59.136 0 0 0 41.65738-17.125517 59.144828 59.144828 0 0 0 41.648551 17.125517 59.400828 59.400828 0 0 0 59.339035-59.321379 17.681655 17.681655 0 0 0-17.681655-17.681656z m173.417931-48.843034a33.262345 33.262345 0 1 0 0 66.533517 33.262345 33.262345 0 0 0 0-66.533517z" fill="#000000" /></svg>