<?xml version="1.0" standalone="no"?><!DOCTYPE svg PUBLIC "-//W3C//DTD SVG 1.1//EN" "http://www.w3.org/Graphics/SVG/1.1/DTD/svg11.dtd"><svg class="icon" width="200px" height="200.00px" viewBox="0 0 1024 1024" version="1.1" xmlns="http://www.w3.org/2000/svg"><path d="M787.4 322.7H236.6c-28.5 0-51.6 23.2-51.6 51.6V753c0 28.5 23.2 51.6 51.6 51.6h550.8c28.5 0 51.6-23.2 51.6-51.6V374.3c0.1-28.5-23.1-51.6-51.6-51.6z" fill="#BCB0AD" /><path d="M288.2 322.7h68.9v482h-68.9zM666.9 322.7h68.8v482h-68.8z" fill="#919CB0" /><path d="M236.6 821.8h550.8c38 0 68.9-30.8 68.9-68.9V374.3c0-38-30.8-68.8-68.9-68.8H615.3v-68.9c0-19-15.4-34.4-34.4-34.4H443.1c-19 0-34.4 15.4-34.4 34.4v68.9H236.6c-38 0-68.9 30.8-68.9 68.8V753c0 38 30.9 68.8 68.9 68.8zM753 339.9h34.4c19 0 34.4 15.4 34.4 34.4V753c0 19-15.4 34.4-34.4 34.4H753V339.9z m-68.9 0h34.4v447.6h-34.4V339.9z m-241-103.3h137.7v68.9H443.1v-68.9z m-68.8 103.3h275.4v447.6H374.3V339.9z m-68.9 0h34.4v447.6h-34.4V339.9z m-103.2 34.4c0-19 15.4-34.4 34.4-34.4H271v447.6h-34.4c-19 0-34.4-15.4-34.4-34.4V374.3z" fill="#573A32" /></svg>