<?xml version="1.0" standalone="no"?><!DOCTYPE svg PUBLIC "-//W3C//DTD SVG 1.1//EN" "http://www.w3.org/Graphics/SVG/1.1/DTD/svg11.dtd"><svg class="icon" width="200px" height="200.00px" viewBox="0 0 1024 1024" version="1.1" xmlns="http://www.w3.org/2000/svg"><path d="M215.6 621.9c-24.3 0-45.6-16.4-51.8-39.8l-1.1-4.2c-7.5-28.5 9.5-57.9 38-65.4l17.8-4.7c4.5-1.2 9-1.8 13.6-1.8 24.3 0 45.6 16.4 51.8 39.8l1.1 4.2c7.5 28.5-9.5 57.9-38 65.4l-17.8 4.7c-4.5 1.2-9 1.8-13.6 1.8z m0 0" fill="#EA5353" /><path d="M232.2 524.8c15.4 0 29.6 10.3 33.6 25.9l1.1 4.2c4.9 18.5-6.3 37.6-24.7 42.5l-17.8 4.7c-3 0.8-6 1.2-8.8 1.2-15.4 0-29.6-10.3-33.6-25.9l-1.1-4.2c-4.9-18.5 6.3-37.6 24.7-42.5l17.8-4.7c2.8-0.8 5.8-1.2 8.8-1.2m0-37.4c-6.3 0-12.4 0.8-18.4 2.4l-17.8 4.7c-18.7 5-34.2 16.9-44 33.5-9.7 16.7-12.4 36.1-7.4 54.8l1.1 4.2c8.3 31.7 37.1 53.8 69.9 53.8 6.2 0 12.4-0.8 18.4-2.4l17.8-4.7c38.5-10.2 61.5-49.8 51.4-88.3l-1.1-4.2c-8.5-31.7-37.2-53.8-69.9-53.8z m0 0" fill="#4C2F1B" /><path d="M209.1 403.5c-3 0-6.1-0.3-9-0.8l-18.1-3.1c-14.1-2.4-26.3-10.1-34.6-21.8-8.2-11.7-11.5-25.9-9.1-39.9l0.7-4.3c4.4-25.8 26.6-44.5 52.7-44.5 3 0 6.1 0.3 9 0.8l18.1 3.1c14.1 2.4 26.3 10.1 34.6 21.8 8.2 11.7 11.5 25.9 9.1 39.9l-0.7 4.3c-4.4 25.8-26.5 44.5-52.7 44.5z m0 0" fill="#EA5353" /><path d="M191.8 307.9c1.9 0 3.9 0.2 5.9 0.5l18.1 3.1c18.9 3.2 31.7 21.2 28.4 40.1l-0.7 4.3c-2.9 16.9-17.7 28.9-34.2 28.9-1.9 0-3.9-0.2-5.9-0.5l-18.1-3.1c-18.9-3.2-31.7-21.2-28.4-40.1l0.7-4.3c2.7-16.9 17.5-28.9 34.2-28.9m0-37.5c-35.3 0-65.3 25.3-71.3 60l-0.7 4.3c-6.8 39.3 19.7 76.6 59.1 83.4l18.1 3.1c4 0.7 8.1 1 12.1 1 35.3 0 65.3-25.3 71.3-60.1l0.7-4.3c6.8-39.3-19.7-76.6-59.1-83.4l-18.1-3.1c-4-0.5-8.1-0.9-12.1-0.9z m0 0" fill="#4C2F1B" /><path d="M361.4 778.8c-8.8 0-17.7-2.2-25.4-6.5l-3.8-2.1c-12.5-6.8-21.6-18.1-25.7-31.9-4.1-13.7-2.6-28.2 4.3-40.7l8.7-16.2c9.3-17.3 27.4-28 47.1-28 8.8 0 17.7 2.2 25.4 6.5l3.8 2.1c25.9 14.1 35.5 46.5 21.5 72.6l-8.7 16.2c-9.5 17.2-27.5 28-47.2 28z m0 0" fill="#EA5353" /><path d="M366.6 672.4c5.6 0 11.2 1.4 16.5 4.2l3.8 2.1c16.8 9.1 23.1 30.3 14 47.1l-8.7 16.2c-6.3 11.6-18.3 18.2-30.7 18.2-5.6 0-11.2-1.4-16.5-4.2l-3.8-2.1c-16.8-9.1-23.1-30.3-14-47.1l8.7-16.2c6.3-11.7 18.3-18.2 30.7-18.2m0-37.6c-26.6 0-50.9 14.5-63.6 37.8l-8.7 16.2c-9.2 17-11.2 36.4-5.8 55 5.5 18.6 17.9 33.8 34.7 43l3.8 2.1c10.5 5.7 22.4 8.7 34.3 8.7 26.6 0 50.9-14.5 63.6-37.8l8.7-16.2c9.2-17 11.2-36.4 5.8-55-5.5-18.6-17.9-33.7-34.7-43l-3.8-2.1c-10.5-5.6-22.4-8.7-34.3-8.7z m0 0" fill="#4C2F1B" /><path d="M574.6 817.7c-26.4 0-49.1-19.7-53-45.9l-2.1-14.7c-4.3-29.2 16.1-56.4 45.3-60.6l1.4-0.2c2.6-0.4 5.1-0.6 7.6-0.6 26.4 0 49.1 19.7 53 45.9l2.1 14.7c2.1 14.1-1.6 28.2-10.1 39.6-8.5 11.5-21 19-35.1 20.9l-1.4 0.2c-2.5 0.6-5.1 0.7-7.7 0.7z m0 0" fill="#EA5353" /><path d="M573.8 714.5c17 0 31.9 12.5 34.4 29.8l2.1 14.7c2.8 19-10.5 36.6-29.4 39.4l-1.4 0.2c-1.7 0.2-3.4 0.4-5 0.4-17 0-31.9-12.5-34.4-29.8l-2.1-14.7c-2.8-19 10.5-36.6 29.4-39.4l1.4-0.2c1.7-0.3 3.4-0.4 5-0.4m0-37.4c-3.5 0-6.9 0.3-10.3 0.8l-1.4 0.2c-19.1 2.8-35.9 12.8-47.4 28.3-11.7 15.5-16.4 34.5-13.7 53.6l2.1 14.7c5.1 35.2 35.8 61.9 71.5 61.9 3.5 0 6.9-0.3 10.3-0.8l1.4-0.2c39.4-5.8 66.9-42.4 61.1-81.9l-2.1-14.7c-5.1-35.3-35.9-61.9-71.5-61.9z m0 0" fill="#4C2F1B" /><path d="M766.6 717.8c-14.7 0-29-6.2-39-16.8l-9.7-10.3c-9.7-10.4-14.9-23.9-14.5-38.3 0.4-14.3 6.3-27.6 16.8-37.3 10.5-9.8 23.5-15 37.2-15 14.7 0 29 6.2 39 16.8l9.7 10.3c20.2 21.4 19.2 55.4-2.3 75.6-10.5 9.9-23.5 15-37.2 15z m0 0" fill="#EA5353" /><path d="M757.3 618.8c9.2 0 18.6 3.7 25.3 10.9l9.7 10.3c13.1 13.9 12.4 36-1.5 49.1l-0.6 0.5c-6.6 6.3-15.3 9.4-23.8 9.4-9.2 0-18.6-3.7-25.3-10.9l-9.7-10.3c-13.1-13.9-12.4-36 1.5-49.1l0.6-0.5c6.8-6.3 15.3-9.4 23.8-9.4m0-37.5c-18.5 0-36 6.9-49.5 19.5l-0.5 0.5c-29 27.3-30.4 73.1-3.1 102.1l9.7 10.3c13.6 14.4 32.8 22.7 52.6 22.7 18.5 0 36-6.9 49.5-19.6l0.5-0.5c14-13.2 22-31.1 22.6-50.4 0.6-19.4-6.4-37.7-19.6-51.7l-9.7-10.3c-13.4-14.3-32.5-22.6-52.5-22.6z m0 0" fill="#4C2F1B" /><path d="M833 532.4c-29.5 0-53.5-24-53.5-53.5s24-53.5 53.5-53.5 53.5 24 53.5 53.5c0 29.6-24.1 53.5-53.5 53.5z m0 0" fill="#EA5353" /><path d="M833 444.2c19.2 0 34.7 15.7 34.7 34.7 0 19.1-15.7 34.7-34.7 34.7-19.2 0-34.7-15.7-34.7-34.7-0.1-19 15.5-34.7 34.7-34.7m0-37.4c-39.8 0-72.3 32.4-72.3 72.3s32.4 72.3 72.3 72.3 72.3-32.4 72.3-72.3c-0.1-40-32.5-72.3-72.3-72.3z m0 0" fill="#4C2F1B" /><path d="M521.1 729.9c-19.9 0-40.2-1.8-60.1-5.3-76.7-13.4-202.7-86-234.9-231.3-26.7-120.3 22.5-227.9 43.5-253.4 18.1-22.1 44.7-34.2 74.9-34.2 40 0 79.3 22 97.8 54.8 17.7 31.4 15.4 68.3-6.4 103.9-23.6 38.8-26.3 92.2-7 139.5C449 553.2 489 587.8 541.6 601c9.7 2.5 20.5 3.8 31.3 3.8 26.6 0 66.1-7.9 102.6-45.6 31.9-32.9 34.5-75 23-102.3-5.8-13.7-20.5-36.6-54.4-36.6-4.5 0-9.1 0.4-14 1.2-24.7 4.3-41.9 13.4-51 27.3-11.9 18.2-7.4 40.1-7.3 40.3 2.5 10.2-2.2 20.7-11.3 25.9-3.6 2-7.5 3-11.4 3-6.1 0-12.1-2.4-16.6-6.8-1.9-1.9-45.1-46.2-25.7-113.3 15.7-54.4 75.3-92.3 145-92.3 78.4 0 159.7 52.7 164.7 170.3 2.4 56.6-20.9 113.4-65.5 159.9-57.7 59.9-141.4 94.1-229.9 94.1z m0 0" fill="#EA5353" /><path d="M521.2 748.3c-20.9 0-42.2-1.8-63.4-5.5-81.6-14.3-215.5-91.4-249.7-245.4-28.2-126.9 24.7-241.6 47.2-269 21.6-26.4 53.3-41 89.2-41 47.1 0 91.8 25.1 113.8 63.9 20.7 36.9 18.2 81.5-6.7 122.5-20.7 33.9-22.9 81.1-5.7 123 10.4 25.4 37.2 70.4 100.1 86.3 8.4 2.1 17.6 3.2 26.8 3.2 23.1 0 57.3-6.9 89.4-40 26-26.8 28.4-60.7 19.2-82.3-7-16.6-20-25.4-37.5-25.4-3.5 0-7.1 0.3-10.9 1-13.2 2.2-30.5 7.3-38.5 18.8-6.5 9.4-5.7 21.6-5.1 26.5 4.9 18.4-2.8 37.1-19.3 46.8-6 3.6-13 5.5-20.2 5.5-11.4 0-22.6-4.7-30.8-12.9-19.7-19.7-48.2-69.4-30.3-131.3 18-62.2 84.9-105.6 162.7-105.6 87.2 0 177.6 58.1 183 187.9 2.6 61.7-22.4 123.3-70.6 173.4-60.7 63.3-149.2 99.6-242.7 99.6zM344.5 224.1c-24.6 0-46.2 9.7-60.8 27.4C265 274.4 219 377.4 244 489.4 277.9 642.1 414.4 698 464.1 706.6c19.1 3.3 38.2 4.9 57 4.9 83.6 0 162.5-32.3 216.4-88.5 41.1-42.9 62.5-94.9 60.3-146.4-4.7-112.8-81.7-152.8-146.3-152.8-61.6 0-113.9 32.5-127.4 79.1-16.4 56.8 19.5 93.7 21 95.2l12.7 12.7-4.1-17.4c-0.1-0.3-6.6-29.7 9.9-54.7 12.1-18.3 33.3-30.1 63.2-35.3 5.8-1 11.4-1.5 17.1-1.5 32.5 0 58.5 17.4 71.3 47.8 13.9 32.8 11 83.4-26.7 122.2-41 42.2-85.6 51.1-115.8 51.1-12.1 0-24.5-1.5-35.8-4.3-58.3-14.7-102.7-53-125.1-107.9-21.5-52.5-18.3-112.2 8.3-155.9 18.1-29.7 20.2-60.1 5.9-85.5-15.1-27.1-47.9-45.3-81.5-45.3z" fill="#4C2F1B" /><path d="M358.8 287.8s-68.6 53.5-13.5 65.8c-3.4-21.8 13.5-65.8 13.5-65.8z m-17.4 125.4s-47.8 58 3.9 62c-16.6-27.4-3.9-62-3.9-62z m4.1 123.8s-7 80.3 43 45c-34-12.6-43-45-43-45z m86.7 78.5s6.7 68.8 58.7 38.1c-39.6-6.7-58.7-38.1-58.7-38.1z m118.1 40.9s34.5 31.1 76.7 0c-39.5-19.9-20.4 0.4-76.7 0z m125.6-27.9s48.9-2.4 50.1-33.6c-37.4 7-11.3 12-50.1 33.6z m69.3-89s33.3-24.2 14.4-49.1c-24.6 29 1.8 7.8-14.4 49.1z m1.3-105.2s7.5-40.5-23.3-45.6c2.2 38.1 6.7 4.6 23.3 45.6z m-67.1-62s-17-28.8-44.5-1.4c22.2-2 17.5 1.8 44.5 1.4z m-85.9 2.9s-35.9-2.4-34.3 36.3c8.7-14.3 20.3-22.7 34.3-36.3z m0 0" fill="#FF7D7D" /></svg>